<svg width="30" height="30" viewBox="0 0 30 30" fill="none" xmlns="http://www.w3.org/2000/svg">
<path d="M13.3858 24.3743C13.2853 24.3743 13.1865 24.348 13.0992 24.298C13.0119 24.248 12.9392 24.1761 12.8883 24.0894C10.9714 20.8236 5.8608 13.8698 5.80946 13.7999C5.72736 13.6883 5.68817 13.5509 5.69905 13.4128C5.70993 13.2746 5.77015 13.145 5.86871 13.0477L7.44019 11.4947C7.53617 11.3999 7.66235 11.3417 7.79679 11.3302C7.93124 11.3188 8.06544 11.3548 8.17605 11.4321L13.2658 14.986C16.6716 10.6186 19.8352 7.60134 21.9165 5.8209C24.2597 3.81678 25.7514 2.91453 25.8138 2.87738C25.9035 2.82358 26.0061 2.79516 26.1106 2.79517H28.653C28.77 2.79516 28.8842 2.8307 28.9805 2.89708C29.0768 2.96345 29.1506 3.05753 29.1922 3.16684C29.2338 3.27614 29.2412 3.39552 29.2135 3.50913C29.1857 3.62274 29.124 3.72522 29.0367 3.80299C21.8169 10.2336 13.9656 23.9451 13.8871 24.0829C13.837 24.1708 13.7647 24.244 13.6774 24.2952C13.59 24.3463 13.4908 24.3736 13.3896 24.3742L13.3858 24.3743Z" fill="#FF5B4A"/>
<path d="M13.2752 26.778C7.54916 26.778 2.89062 22.1195 2.89062 16.3934C2.89062 10.6673 7.54916 6.0088 13.2752 6.0088C14.4234 6.00752 15.5637 6.19703 16.6497 6.56956C16.7944 6.61929 16.9135 6.72447 16.9806 6.86197C17.0478 6.99946 17.0576 7.158 17.0079 7.30272C16.9581 7.44743 16.853 7.56647 16.7155 7.63364C16.578 7.7008 16.4194 7.7106 16.2747 7.66087C15.3092 7.32978 14.2954 7.16141 13.2747 7.16264C8.18482 7.16264 4.04395 11.3036 4.04395 16.3934C4.04395 21.4833 8.18482 25.6242 13.2747 25.6242C18.3646 25.6242 22.5055 21.4833 22.5055 16.3934C22.5056 15.7689 22.4429 15.1459 22.3182 14.5339C22.3031 14.4597 22.3027 14.3832 22.317 14.3088C22.3314 14.2344 22.3604 14.1635 22.4021 14.1003C22.4439 14.0371 22.4977 13.9827 22.5605 13.9403C22.6233 13.8978 22.6938 13.8682 22.7681 13.853C22.8423 13.8378 22.9188 13.8374 22.9932 13.8518C23.0676 13.8662 23.1385 13.8951 23.2017 13.9369C23.2649 13.9787 23.3193 14.0325 23.3617 14.0953C23.4042 14.1581 23.4338 14.2286 23.449 14.3029C23.5892 14.9909 23.6598 15.6913 23.6596 16.3934C23.6599 22.1195 19.0013 26.778 13.2752 26.778Z" fill="#2CAAC1"/>
</svg>
