<svg width="70" height="70" viewBox="0 0 70 70" fill="none" xmlns="http://www.w3.org/2000/svg">
<path d="M39.5161 50.8065C39.8594 50.3492 40.2432 49.9348 40.6452 49.5408V35C40.6452 33.7547 39.6324 32.7419 38.3871 32.7419H22.5806C21.3353 32.7419 20.3226 33.7547 20.3226 35V50.8065H39.5161Z" fill="#FF5B4A"/>
<path d="M67.7419 11.2902H65.9513C64.969 11.2902 64.0297 11.5725 63.2258 12.0997C62.4219 11.5725 61.4826 11.2902 60.5003 11.2902H59.1771C58.1948 11.2902 57.2555 11.5725 56.4516 12.0997C55.6477 11.5725 54.7084 11.2902 53.7261 11.2902H52.4029C51.4206 11.2902 50.4813 11.5725 49.6774 12.0997C48.8735 11.5725 47.9342 11.2902 46.9519 11.2902H45.1613C44.6115 11.2902 44.1147 11.4957 43.7218 11.8231L30.4839 3.16797L1.69355 21.9923C0.633387 22.6844 0 23.8541 0 25.122V25.6154C0 27.677 1.67774 29.3547 3.73935 29.3547C4.46645 29.3547 5.17323 29.1436 5.7829 28.7473L9.03226 26.6281V49.6773H0V65.4838H39.1819C41.5168 66.9628 44.2039 67.7418 46.9734 67.7418H52.1432C52.6106 69.0526 53.8526 69.9999 55.3226 69.9999H57.5806C59.4481 69.9999 60.9677 68.4802 60.9677 66.6128V65.4838H62.0968C63.9642 65.4838 65.4839 63.9641 65.4839 62.0967C65.4839 61.2262 65.144 60.4393 64.6032 59.8386C65.1452 59.238 65.4839 58.451 65.4839 57.5806C65.4839 56.7101 65.144 55.9231 64.6032 55.3225C65.1452 54.7218 65.4839 53.9349 65.4839 53.0644C65.4839 51.3596 64.2137 49.9585 62.5721 49.7259C62.9774 49.0485 63.2258 48.2649 63.2258 47.4193C63.2258 46.1739 62.2131 45.1612 60.9677 45.1612V42.9031C62.2131 42.9031 63.2258 41.8904 63.2258 40.6451V38.387C63.2258 38.0596 63.1524 37.7502 63.0271 37.4702C67.3118 34.9457 70 30.337 70 25.2722V13.5483C70 12.303 68.9873 11.2902 67.7419 11.2902ZM4.55 26.8551C4.30726 27.0131 4.02726 27.0967 3.73935 27.0967C2.92306 27.0967 2.25806 26.4317 2.25806 25.6154V25.122C2.25806 24.6196 2.50871 24.1567 2.92871 23.8812L30.4839 5.8641L42.9032 13.9841V18.0418L30.4839 9.94216L4.55 26.8551ZM30.4839 12.6383L42.9032 20.738V25.2722C42.9032 25.8886 42.9506 26.4972 43.0274 27.0967H36.129V20.3225C36.129 19.0772 35.1163 18.0644 33.871 18.0644H27.0968C25.8515 18.0644 24.8387 19.0772 24.8387 20.3225V27.0967H11.2903V25.1559L30.4839 12.6383ZM33.871 27.0967H27.0968V20.3225H33.871V27.0967ZM11.2903 29.3547H43.5027C44.52 32.7396 46.7826 35.6468 49.8761 37.4702C49.7508 37.7502 49.6774 38.0596 49.6774 38.387V40.6451C49.6774 41.8904 50.6902 42.9031 51.9355 42.9031V45.1612H48.5563C44.8587 45.1612 41.3169 46.8389 38.9697 49.6773H31.6129V32.7418H29.3548V49.6773H11.2903V29.3547ZM40.1427 63.4154L39.8582 63.2257H2.25806V51.9354H40.0806L40.4194 51.4849C42.3308 48.9389 45.3724 47.4193 48.5563 47.4193H60.9677C60.9677 48.6646 59.955 49.6773 58.7097 49.6773H54.6248L54.3132 50.3017C53.7205 51.4883 52.6998 52.3723 51.4421 52.7923L50.4497 53.1231L51.1644 55.2638L51.9355 55.0064V60.0983C50.7421 59.002 49.324 58.1541 47.7761 57.6381L47.0615 59.7788C49.009 60.4291 50.7082 61.7275 51.8463 63.4334L51.9355 63.5678V65.4838H46.9734C44.5347 65.4838 42.1727 64.768 40.1427 63.4154ZM63.2258 57.5806C63.2258 58.2038 62.72 58.7096 62.0968 58.7096H59.8387C59.2155 58.7096 58.7097 58.2038 58.7097 57.5806C58.7097 56.9573 59.2155 56.4515 59.8387 56.4515H62.0968C62.72 56.4515 63.2258 56.9573 63.2258 57.5806ZM57.5806 67.7418H55.3226C54.6994 67.7418 54.1936 67.236 54.1936 66.6128V53.857C54.8969 53.332 55.5066 52.6896 55.9808 51.9354H56.6594C56.5329 52.2899 56.4516 52.667 56.4516 53.0644C56.4516 53.9349 56.7915 54.7218 57.3323 55.3225C56.7903 55.9231 56.4516 56.7101 56.4516 57.5806C56.4516 58.451 56.7915 59.238 57.3323 59.8386C56.7903 60.4393 56.4516 61.2262 56.4516 62.0967C56.4516 63.5667 57.3989 64.8086 58.7097 65.276V66.6128C58.7097 67.236 58.2039 67.7418 57.5806 67.7418ZM62.0968 63.2257H59.8387C59.2155 63.2257 58.7097 62.7199 58.7097 62.0967C58.7097 61.4735 59.2155 60.9676 59.8387 60.9676H62.0968C62.72 60.9676 63.2258 61.4735 63.2258 62.0967C63.2258 62.7199 62.72 63.2257 62.0968 63.2257ZM63.2258 53.0644C63.2258 53.6876 62.72 54.1935 62.0968 54.1935H59.8387C59.2155 54.1935 58.7097 53.6876 58.7097 53.0644C58.7097 52.4412 59.2155 51.9354 59.8387 51.9354H62.0968C62.72 51.9354 63.2258 52.4412 63.2258 53.0644ZM58.7097 45.1612H54.1936V42.9031H58.7097V45.1612ZM51.9355 40.6451V38.387H60.9677L60.97 40.6451H51.9355ZM67.7419 25.2722C67.7419 29.9712 64.9894 34.2062 60.7171 36.1289H57.5806V27.0967H55.3226V36.1289H52.1861C47.9139 34.2062 45.1613 29.9712 45.1613 25.2722V13.5483H46.9519C47.5345 13.5483 48.0855 13.738 48.5484 14.0744V29.3547H50.8064V14.0744C51.2694 13.738 51.8203 13.5483 52.4029 13.5483H53.7261C54.3087 13.5483 54.8597 13.738 55.3226 14.0744V24.8386H57.5806V14.0744C58.0435 13.738 58.5945 13.5483 59.1771 13.5483H60.5003C61.0829 13.5483 61.6339 13.738 62.0968 14.0744V29.3547H64.3548V14.0744C64.8177 13.738 65.3687 13.5483 65.9513 13.5483H67.7419V25.2722Z" fill="#555555"/>
<path d="M2.25806 33.8708H4.51613V36.1289H2.25806V33.8708Z" fill="#555555"/>
<path d="M0 36.1292H2.25806V38.3872H0V36.1292Z" fill="#555555"/>
<path d="M2.25806 38.3872H4.51613V40.6453H2.25806V38.3872Z" fill="#555555"/>
<path d="M4.51613 36.1292H6.77419V38.3872H4.51613V36.1292Z" fill="#555555"/>
<path d="M50.8065 2.25806H53.0645V4.51612H50.8065V2.25806Z" fill="#555555"/>
<path d="M48.5484 4.51611H50.8065V6.77418H48.5484V4.51611Z" fill="#555555"/>
<path d="M50.8065 6.77417H53.0645V9.03223H50.8065V6.77417Z" fill="#555555"/>
<path d="M53.0645 4.51611H55.3226V6.77418H53.0645V4.51611Z" fill="#555555"/>
<path d="M59.8387 6.77417H62.0968V9.03223H59.8387V6.77417Z" fill="#555555"/>
<path d="M41.7742 2.25806H44.0323V4.51612H41.7742V2.25806Z" fill="#555555"/>
<path d="M2.25806 13.5483H4.51613V15.8064H2.25806V13.5483Z" fill="#555555"/>
<path d="M9.03226 0H11.2903V4.51613H9.03226V0Z" fill="#555555"/>
<path d="M4.51613 4.51611H9.03226V6.77418H4.51613V4.51611Z" fill="#555555"/>
<path d="M9.03226 6.77417H11.2903V11.2903H9.03226V6.77417Z" fill="#555555"/>
<path d="M11.2903 4.51611H15.8065V6.77418H11.2903V4.51611Z" fill="#555555"/>
<path d="M19.1935 4.51611H21.4516V6.77418H19.1935V4.51611Z" fill="#555555"/>
</svg>
