<svg width="70" height="70" viewBox="0 0 70 70" fill="none" xmlns="http://www.w3.org/2000/svg">
<path d="M21.4516 0C9.62274 0 0 9.62274 0 21.4516V40.0953C0 46.5963 3.88161 52.3973 9.88694 54.8744L10.0935 54.9602H10.1816C10.3927 51.1971 13.1781 48.046 16.9355 47.4194L17.8274 44.7435H17.8918C10.8794 43.1268 5.64516 36.8584 5.64516 29.3548V22.1279C5.64516 20.3429 6.69629 18.7261 8.32661 18.0013L14.2032 15.3898L14.2089 15.3853C16.7085 17.1015 19.6982 18.0645 22.8189 18.0645H32.7419C35.236 18.0645 37.2581 20.0866 37.2581 22.5806V29.3548C37.2581 36.8584 32.0239 43.1268 25.0115 44.7435H25.0758L25.9677 47.4194C29.7252 48.046 32.5105 51.1971 32.7216 54.9602H32.8097L33.0163 54.8744C39.0227 52.3973 42.9032 46.5963 42.9032 40.0953V21.4516C42.9032 9.62274 33.2805 0 21.4516 0V0Z" fill="#FF5B4A"/>
<path d="M18.0645 28.2258C18.0645 25.7352 16.0391 23.7097 13.5484 23.7097C11.0578 23.7097 9.03229 25.7352 9.03229 28.2258H11.2904C11.2904 26.9805 12.3031 25.9678 13.5484 25.9678C14.7937 25.9678 15.8065 26.9805 15.8065 28.2258H18.0645Z" fill="#555555"/>
<path d="M29.3548 23.7097C26.8642 23.7097 24.8387 25.7352 24.8387 28.2258H27.0968C27.0968 26.9805 28.1095 25.9678 29.3548 25.9678C30.6002 25.9678 31.6129 26.9805 31.6129 28.2258H33.871C33.871 25.7352 31.8455 23.7097 29.3548 23.7097Z" fill="#555555"/>
<path d="M16.1474 36.5038C16.7571 38.9425 18.9384 40.645 21.4516 40.645C23.9648 40.645 26.1461 38.9425 26.7558 36.5038L27.414 33.8708H15.4892L16.1474 36.5038ZM24.5158 36.1289C24.1015 37.4679 22.8663 38.387 21.4516 38.387C20.0369 38.387 18.8006 37.4679 18.3874 36.1289H24.5158Z" fill="#555555"/>
<path d="M32.742 16.9356H22.8189C18.0995 16.9356 13.7189 14.5906 11.1007 10.6638L9.22195 11.9159C10.0236 13.1183 10.9674 14.192 12.0231 15.1224L7.86824 16.9695C5.8326 17.8761 4.51614 19.9004 4.51614 22.1291V29.3549C4.51614 36.9274 9.51211 43.3527 16.3811 45.5125L16.0707 46.444C11.9531 47.4466 9.03227 51.1148 9.03227 55.4164V60.829C9.03227 63.0317 10.0789 65.1137 11.8018 66.4448L11.0115 70.0001H31.8907L31.1003 66.4448C32.8244 65.1137 33.871 63.0317 33.871 60.829V55.4164C33.871 51.1159 30.9502 47.4477 26.8326 46.4451L26.5221 45.5137C33.3911 43.3527 38.3871 36.9274 38.3871 29.3549V22.5808C38.3871 19.468 35.8547 16.9356 32.742 16.9356ZM26.5695 56.4517H16.3349C15.9995 55.9888 15.8065 55.4288 15.8065 54.8553V48.894C15.951 48.8398 16.1045 48.8037 16.2547 48.7585L17.5768 52.0654C18.095 53.3582 19.329 54.1937 20.7223 54.1937H22.181C23.5742 54.1937 24.8082 53.3582 25.3265 52.0643L26.6486 48.7574C26.7987 48.8025 26.9511 48.8387 27.0968 48.8929V54.8541C27.0968 55.4288 26.9037 55.9888 26.5695 56.4517ZM23.2287 51.2254C23.0571 51.6567 22.645 51.9356 22.181 51.9356H20.7223C20.2582 51.9356 19.8461 51.6567 19.6745 51.2254L19.0874 49.7577L21.4516 50.9398L23.8158 49.7577L23.2287 51.2254ZM13.5484 50.2962V54.8553C13.5484 55.8116 13.816 56.7272 14.3161 57.5153C14.0249 57.8766 13.8069 58.2841 13.6274 58.7098H11.2903V55.4164C11.2903 53.3977 12.1574 51.5777 13.5484 50.2962ZM11.2994 60.9678H13.0189L12.3753 63.8638C11.7182 63.0498 11.331 62.0348 11.2994 60.9678ZM13.8273 67.742L15.5366 60.0511C15.6495 59.5441 15.9036 59.0812 16.2705 58.7143L16.2739 58.7098H26.6294L26.6339 58.7143C27.0008 59.0812 27.2549 59.5441 27.3678 60.0511L29.076 67.742H13.8273ZM29.8844 60.9678H31.6039C31.5723 62.0348 31.185 63.0498 30.5279 63.8638L29.8844 60.9678ZM31.6129 55.4164V58.7098H29.277C29.0974 58.2841 28.8784 57.8766 28.5882 57.5153C29.0884 56.7272 29.356 55.8116 29.356 54.8553V50.2962C30.7458 51.5777 31.6129 53.3977 31.6129 55.4164ZM24.587 46.847L21.4516 48.4153L18.3163 46.8482L18.5895 46.0296C19.5221 46.1888 20.4739 46.2904 21.4516 46.2904C22.4294 46.2904 23.3811 46.1888 24.3137 46.0296L24.587 46.847ZM36.129 29.3549C36.129 37.4479 29.5445 44.0324 21.4516 44.0324C13.3587 44.0324 6.77421 37.4479 6.77421 29.3549V22.1291C6.77421 20.7924 7.5634 19.5775 8.78614 19.0333L14.0937 16.6748C16.6645 18.2983 19.6768 19.1937 22.8189 19.1937H32.742C34.6094 19.1937 36.129 20.7133 36.129 22.5808V29.3549Z" fill="#555555"/>
<path d="M70 12.3573V4.51612C70 3.2708 68.9873 2.25806 67.7419 2.25806H42.9032C41.6579 2.25806 40.6452 3.2708 40.6452 4.51612V12.3573C40.6452 18.0374 44.4252 22.8911 49.7203 24.4108C49.6944 24.5497 49.6774 24.6919 49.6774 24.8387V27.0968C49.6774 28.3421 50.6902 29.3548 51.9355 29.3548V42.9032H42.9032C41.6579 42.9032 40.6452 43.916 40.6452 45.1613V53.0645C40.6452 54.3098 41.6579 55.3226 42.9032 55.3226H43.2781L43.8561 65.7345C43.9882 68.1258 45.9697 70 48.3655 70H62.2797C64.6755 70 66.6558 68.1258 66.789 65.7345L66.8918 63.8942L68.5978 64.321L69.1453 62.1306L67.0194 61.5989L67.681 49.6774H67.7419C68.9873 49.6774 70 48.6647 70 47.4193V45.1613C70 43.916 68.9873 42.9032 67.7419 42.9032H58.7097V29.3548C59.955 29.3548 60.9678 28.3421 60.9678 27.0968V24.8387C60.9678 24.6919 60.9508 24.5497 60.9249 24.4108C66.22 22.8911 70 18.0374 70 12.3573ZM67.7419 12.3573C67.7419 13.5653 67.5252 14.7248 67.1402 15.8064H65.4839V4.51612H67.7419V12.3573ZM47.4194 15.8064V4.51612H49.6774V15.8064H47.4194ZM51.9355 4.51612H54.1936V15.8064H51.9355V4.51612ZM56.4516 4.51612H58.7097V15.8064H56.4516V4.51612ZM60.9678 4.51612H63.2258V15.8064H60.9678V4.51612ZM42.9032 4.51612H45.1613V15.8064H43.505C43.12 14.7248 42.9032 13.5653 42.9032 12.3573V4.51612ZM56.4516 46.2903C56.4516 46.9124 55.9447 47.4193 55.3226 47.4193C54.7005 47.4193 54.1936 46.9124 54.1936 46.2903C54.1936 45.6682 54.7005 45.1613 55.3226 45.1613C55.9447 45.1613 56.4516 45.6682 56.4516 46.2903ZM49.6774 45.1613H52.1432C52.0168 45.5158 51.9355 45.8929 51.9355 46.2903C51.9355 46.6877 52.0168 47.0648 52.1432 47.4193H49.6774V45.1613ZM42.9032 45.1613H47.4194V53.0645H42.9032V45.1613ZM62.2797 67.7419H48.3655C47.1676 67.7419 46.1774 66.8048 46.1108 65.6092L45.5395 55.3226H47.4194C48.6647 55.3226 49.6774 54.3098 49.6774 53.0645V49.6774H54.241C54.6881 55.8973 58.7876 61.2353 64.6642 63.2721L64.5344 65.6103C64.4678 66.8048 63.4776 67.7419 62.2797 67.7419ZM64.7952 60.9011C60.1503 59.0314 56.9213 54.7084 56.499 49.6774H65.4195L64.7952 60.9011ZM67.7419 47.4193H58.5019C58.6284 47.0648 58.7097 46.6877 58.7097 46.2903C58.7097 45.8929 58.6284 45.5158 58.5019 45.1613H67.7419V47.4193ZM56.4516 42.9032H54.1936V29.3548H56.4516V42.9032ZM51.9355 27.0968V24.8387H58.7097L58.7108 27.0968H51.9355ZM58.6307 22.5806H52.0145C48.9063 22.2216 46.2655 20.5043 44.6374 18.0645H66.0066C64.3797 20.5043 61.7378 22.2216 58.6307 22.5806Z" fill="#555555"/>
</svg>
