<svg width="70" height="70" viewBox="0 0 70 70" fill="none" xmlns="http://www.w3.org/2000/svg">
<path d="M41.7742 29.9193C41.7742 29.0116 42.21 28.2122 42.8761 27.6963C42.6944 20.318 38.7777 13.8634 32.9407 10.1409C32.874 10.1466 32.8097 10.1613 32.7419 10.1613C31.8613 10.1613 31.106 9.65207 30.7345 8.91594C27.921 7.55772 24.78 6.77417 21.4516 6.77417C9.62274 6.77417 0 16.3969 0 28.2258V44.0322C0 53.9203 7.40871 62.1284 17.2324 63.1264L17.3137 63.1343L18.8763 63.0677C18.2226 62.6184 17.5768 62.1577 16.9547 61.6598C15.5152 60.5093 14.6774 58.7661 14.6774 56.9235V56.8727C14.6774 53.5218 17.3927 50.8064 20.7426 50.8064C22.6145 50.8064 24.3815 51.6701 25.5308 53.148L31.0269 60.2147C31.4007 60.6956 31.9539 61.005 32.5602 61.0727L32.7419 61.093V58.048C32.7419 57.0251 33.1484 56.0451 33.871 55.3226C33.1484 54.6 32.7419 53.6188 32.7419 52.5971V51.9355C32.7419 50.0647 34.2582 48.5484 36.129 48.5484H42.9032V32.165C42.2213 31.649 41.7742 30.8395 41.7742 29.9193ZM37.2581 35C37.2581 43.7297 30.1813 50.8064 21.4516 50.8064C12.7219 50.8064 5.64516 43.7297 5.64516 35V28.0937C5.64516 26.1495 6.88936 24.4243 8.73307 23.809L14.8174 21.7813C16.4794 23.0051 18.5229 23.7097 20.6895 23.7097H37.2581V35Z" fill="#FF5B4A"/>
<path d="M66.6129 0H28.2258C26.3584 0 24.8387 1.51968 24.8387 3.3871V7.05419C25.6065 7.17952 26.3584 7.34661 27.0968 7.55097V3.3871C27.0968 2.76387 27.6037 2.25806 28.2258 2.25806H66.6129C67.235 2.25806 67.7419 2.76387 67.7419 3.3871V13.5484H37.0492C37.7165 14.2563 38.3318 15.0127 38.8986 15.8065H67.7419V55.3226C67.7419 55.9458 67.235 56.4516 66.6129 56.4516H51.6645C51.5302 56.0553 51.3563 55.6748 51.1249 55.3226C51.4613 54.8089 51.686 54.2376 51.8136 53.6381C59.7777 51.6431 65.4839 44.4161 65.4839 36.129C65.4839 26.1687 57.3797 18.0645 47.4194 18.0645C45.1681 18.0645 42.9924 18.4947 40.9229 19.2963C41.2357 19.9771 41.5168 20.6737 41.7584 21.3906C43.5615 20.6952 45.4571 20.3226 47.4194 20.3226C56.1355 20.3226 63.2258 27.4129 63.2258 36.129C63.2258 43.1708 58.5234 49.3489 51.8711 51.2976C51.7582 50.5084 51.4444 49.7903 50.9781 49.1874C56.7248 47.6192 60.9678 42.3669 60.9678 36.129C60.9678 28.6582 54.8902 22.5806 47.4194 22.5806C45.684 22.5806 43.9668 22.9216 42.3692 23.5629C42.5374 24.3182 42.6594 25.0905 42.7452 25.874C44.205 25.2068 45.8003 24.8387 47.4194 24.8387C53.6448 24.8387 58.7097 29.9035 58.7097 36.129H58.1136C57.1652 36.129 56.2168 36.2431 55.2898 36.4508C55.3 36.3435 55.3226 36.2397 55.3226 36.129C55.3226 34.2616 53.8029 32.7419 51.9355 32.7419C50.0681 32.7419 48.5484 34.2616 48.5484 36.129C48.5484 36.9702 48.8679 37.7311 49.3782 38.325C47.8055 38.4752 46.191 38.2042 44.7763 37.4963L42.9032 36.5603V39.0848L43.7658 39.5161C45.2437 40.2545 46.8978 40.6452 48.5484 40.6452C50.199 40.6452 51.8531 40.2545 53.331 39.5161C54.81 38.7777 56.4629 38.3871 58.1136 38.3871H58.4816C57.4328 43.5344 52.8715 47.4194 47.4194 47.4194H36.129C33.6384 47.4194 31.6129 49.4448 31.6129 51.9355V52.5971C31.6129 53.5794 31.8952 54.5187 32.4224 55.3226C31.8952 56.1264 31.6129 57.0658 31.6129 58.0481V59.1285L26.4216 52.4548C26.1292 52.0789 25.7984 51.7447 25.4484 51.4387C32.8605 49.6356 38.3871 42.9597 38.3871 35V24.8387V23.7097C38.3871 19.9229 35.5544 16.7142 31.7969 16.2445L28.3658 15.8155L28.0858 18.0555L31.5169 18.4845C33.7626 18.7656 35.5374 20.4445 36.0071 22.5806H20.6895C16.905 22.5806 13.5586 20.1679 12.3618 16.5787L10.22 17.2934C10.7326 18.8311 11.5647 20.1916 12.6203 21.3252L8.37518 22.7387C6.06743 23.5076 4.51614 25.6606 4.51614 28.0937V35C4.51614 42.5758 9.51663 49.0034 16.389 51.161C14.6673 52.4819 13.5484 54.5627 13.5484 56.9235C13.5484 59.1206 14.5329 61.1698 16.249 62.5427C22.1957 67.2982 29.6484 69.9323 37.2581 69.9887V70H37.511H38.1997H47.4194C49.91 70 51.9355 67.9745 51.9355 65.4839V64.8223C51.9355 63.84 51.6532 62.9006 51.126 62.0968C51.6532 61.2929 51.9355 60.3535 51.9355 59.3713V58.7097H66.6129C68.4803 58.7097 70 57.19 70 55.3226V3.3871C70 1.51968 68.4803 0 66.6129 0V0ZM51.9355 35C52.5576 35 53.0645 35.5058 53.0645 36.129C53.0645 36.7523 52.5576 37.2581 51.9355 37.2581C51.3134 37.2581 50.8065 36.7523 50.8065 36.129C50.8065 35.5058 51.3134 35 51.9355 35ZM33.871 51.9355C33.871 50.6902 34.8837 49.6774 36.129 49.6774H47.4194C48.6647 49.6774 49.6774 50.6902 49.6774 51.9355V52.5971C49.6774 53.1797 49.4878 53.7306 49.1513 54.1936H34.3971C34.0607 53.7306 33.871 53.1797 33.871 52.5971V51.9355ZM6.77421 35V28.0937C6.77421 26.6339 7.70453 25.3423 9.08985 24.8794L14.6424 23.0289C16.3981 24.1794 18.4823 24.8387 20.6895 24.8387H36.129V35C36.129 43.0929 29.5445 49.6774 21.4516 49.6774C13.3587 49.6774 6.77421 43.0929 6.77421 35ZM15.8065 56.8716C15.8065 54.1495 18.0205 51.9355 20.7437 51.9355C22.2781 51.9355 23.6984 52.6298 24.64 53.8413L28.2247 58.4489L23.1339 64.2668C21.2055 63.289 19.3607 62.1385 17.6592 60.7781C16.4816 59.8365 15.8065 58.4319 15.8065 56.8716ZM37.511 67.7419C33.2918 67.7419 29.129 66.8681 25.2678 65.2558L29.636 60.2632L30.1361 60.9068C30.6928 61.6237 31.5305 62.0934 32.436 62.1961L38.4695 62.8668C39.7103 63.0034 40.6452 64.0489 40.6452 65.2964C40.6452 66.6445 39.5478 67.7419 38.1997 67.7419H37.511ZM49.6774 65.4839C49.6774 66.7292 48.6647 67.7419 47.4194 67.7419H42.1976C42.6368 67.0273 42.9032 66.1952 42.9032 65.2964C42.9032 64.5524 42.7136 63.8547 42.4042 63.2258H49.1513C49.4878 63.6887 49.6774 64.2397 49.6774 64.8223V65.4839ZM49.6774 59.3713C49.6774 59.9539 49.4878 60.5048 49.1513 60.9677H39.9937C39.5929 60.8018 39.1718 60.6719 38.7202 60.6211L33.871 60.0826V58.0481C33.871 57.4655 34.0607 56.9145 34.3971 56.4516H49.1502C49.4878 56.9145 49.6774 57.4655 49.6774 58.0481V58.7097V59.3713Z" fill="#555555"/>
<path d="M14.6774 29.3547C12.81 29.3547 11.2903 30.8744 11.2903 32.7418C11.2903 34.6093 12.81 36.1289 14.6774 36.1289C16.5449 36.1289 18.0645 34.6093 18.0645 32.7418C18.0645 30.8744 16.5449 29.3547 14.6774 29.3547ZM14.6774 33.8709C14.0553 33.8709 13.5484 33.3651 13.5484 32.7418C13.5484 32.1186 14.0553 31.6128 14.6774 31.6128C15.2995 31.6128 15.8065 32.1186 15.8065 32.7418C15.8065 33.3651 15.2995 33.8709 14.6774 33.8709Z" fill="#555555"/>
<path d="M28.2258 36.1289C30.0932 36.1289 31.6129 34.6093 31.6129 32.7418C31.6129 30.8744 30.0932 29.3547 28.2258 29.3547C26.3584 29.3547 24.8387 30.8744 24.8387 32.7418C24.8387 34.6093 26.3584 36.1289 28.2258 36.1289ZM28.2258 31.6128C28.8479 31.6128 29.3548 32.1186 29.3548 32.7418C29.3548 33.3651 28.8479 33.8709 28.2258 33.8709C27.6037 33.8709 27.0968 33.3651 27.0968 32.7418C27.0968 32.1186 27.6037 31.6128 28.2258 31.6128Z" fill="#555555"/>
<path d="M28.1073 42.2788L26.0874 41.2683C25.5827 42.2765 24.57 42.9032 23.4432 42.9032H18.0645V45.1612H23.4432C25.4303 45.1612 27.2176 44.0559 28.1073 42.2788Z" fill="#555555"/>
<path d="M63.2258 11.2903C64.4711 11.2903 65.4839 10.2776 65.4839 9.03224V6.77418C65.4839 5.52886 64.4711 4.51611 63.2258 4.51611H48.5484C47.3031 4.51611 46.2903 5.52886 46.2903 6.77418V9.03224C46.2903 10.2776 47.3031 11.2903 48.5484 11.2903H63.2258ZM54.1936 9.03224V6.77418H57.5807V9.03224H54.1936ZM63.227 9.03224H59.8387V6.77418H63.2258L63.227 9.03224ZM48.5484 6.77418H51.9355V9.03224H48.5484V6.77418Z" fill="#555555"/>
<path d="M44.0323 7.90321C44.0323 6.03579 42.5126 4.51611 40.6452 4.51611C38.7778 4.51611 37.2581 6.03579 37.2581 7.90321C37.2581 9.77063 38.7778 11.2903 40.6452 11.2903C42.5126 11.2903 44.0323 9.77063 44.0323 7.90321ZM39.5162 7.90321C39.5162 7.27998 40.0231 6.77418 40.6452 6.77418C41.2673 6.77418 41.7742 7.27998 41.7742 7.90321C41.7742 8.52644 41.2673 9.03224 40.6452 9.03224C40.0231 9.03224 39.5162 8.52644 39.5162 7.90321Z" fill="#555555"/>
<path d="M36.1291 7.90321C36.1291 6.03579 34.6094 4.51611 32.742 4.51611C30.8745 4.51611 29.3549 6.03579 29.3549 7.90321C29.3549 9.77063 30.8745 11.2903 32.742 11.2903C34.6094 11.2903 36.1291 9.77063 36.1291 7.90321ZM31.6129 7.90321C31.6129 7.27998 32.1199 6.77418 32.742 6.77418C33.3641 6.77418 33.871 7.27998 33.871 7.90321C33.871 8.52644 33.3641 9.03224 32.742 9.03224C32.1199 9.03224 31.6129 8.52644 31.6129 7.90321Z" fill="#555555"/>
<path d="M48.5484 29.9194C48.5484 27.7404 46.7758 25.9678 44.5968 25.9678C42.4178 25.9678 40.6452 27.7404 40.6452 29.9194C40.6452 32.0984 42.4178 33.871 44.5968 33.871C46.7758 33.871 48.5484 32.0984 48.5484 29.9194ZM42.9032 29.9194C42.9032 28.9857 43.6631 28.2258 44.5968 28.2258C45.5305 28.2258 46.2903 28.9857 46.2903 29.9194C46.2903 30.8531 45.5305 31.6129 44.5968 31.6129C43.6631 31.6129 42.9032 30.8531 42.9032 29.9194Z" fill="#555555"/>
</svg>
