<svg width="24" height="24" viewBox="0 0 24 24" fill="none" xmlns="http://www.w3.org/2000/svg">
<g clip-path="url(#clip0_76_67041)">
<path d="M11.9998 24C18.6272 24 23.9998 18.6274 23.9998 12C23.9998 5.37258 18.6272 0 11.9998 0C5.37234 0 -0.000244141 5.37258 -0.000244141 12C-0.000244141 18.6274 5.37234 24 11.9998 24Z" fill="#FFD93B"/>
<path d="M11.9998 19.713C8.4905 19.713 5.43275 17.3362 4.56425 13.9342C4.496 13.6665 4.65725 13.3942 4.925 13.326C5.19125 13.2562 5.46425 13.419 5.5325 13.6867C6.2885 16.6462 8.94725 18.7132 11.999 18.7132C15.0508 18.7132 17.7103 16.6462 18.4655 13.6867C18.533 13.419 18.8053 13.2562 19.0738 13.326C19.3415 13.3942 19.5028 13.6665 19.4345 13.9342C18.5668 17.3362 15.509 19.713 11.9998 19.713Z" fill="#3E4347"/>
<path d="M23.9998 11.9999C23.9998 18.6299 18.626 23.9999 11.9998 23.9999C8.22726 23.9999 4.85976 22.2599 2.65851 19.5337C4.71726 21.1987 7.33851 22.1924 10.1923 22.1924C16.8185 22.1924 22.1923 16.8224 22.1923 10.1924C22.1923 7.33869 21.1985 4.71744 19.5335 2.65869C22.256 4.85994 23.9998 8.22744 23.9998 11.9999Z" fill="#F4C534"/>
<path d="M8.12451 12.5124C9.14016 12.5124 9.96351 11.5339 9.96351 10.3269C9.96351 9.11984 9.14016 8.14136 8.12451 8.14136C7.10886 8.14136 6.28551 9.11984 6.28551 10.3269C6.28551 11.5339 7.10886 12.5124 8.12451 12.5124Z" fill="#3E4347"/>
<path d="M8.95401 9.85639C8.81076 9.96889 8.57526 9.91339 8.42451 9.73039C8.27376 9.54739 8.26626 9.30214 8.40951 9.18964C8.55201 9.07189 8.78826 9.12739 8.93826 9.31039C9.08976 9.49864 9.09126 9.73939 8.95401 9.85639Z" fill="#5A5F63"/>
<path d="M15.8773 12.5124C16.8929 12.5124 17.7163 11.5339 17.7163 10.3269C17.7163 9.11984 16.8929 8.14136 15.8773 8.14136C14.8616 8.14136 14.0383 9.11984 14.0383 10.3269C14.0383 11.5339 14.8616 12.5124 15.8773 12.5124Z" fill="#3E4347"/>
<path d="M16.7053 9.85639C16.562 9.96889 16.3265 9.91339 16.1758 9.73039C16.025 9.54739 16.0175 9.30214 16.1608 9.18964C16.3033 9.07189 16.5388 9.12739 16.6895 9.31039C16.841 9.49864 16.8425 9.73939 16.7053 9.85639Z" fill="#5A5F63"/>
</g>
<defs>
<clipPath id="clip0_76_67041">
<rect width="24" height="24" fill="white" transform="translate(-0.000244141)"/>
</clipPath>
</defs>
</svg>
